<svg width="28" height="28" viewBox="0 0 28 28" fill="none" xmlns="http://www.w3.org/2000/svg">
<mask id="mask0" mask-type="alpha" maskUnits="userSpaceOnUse" x="0" y="0" width="28" height="28">
<rect width="28" height="28" fill="#C4C4C4"/>
</mask>
<g mask="url(#mask0)">
<path d="M23.3333 2.3335H4.66659C3.38325 2.3335 2.33325 3.3835 2.33325 4.66683V23.3335C2.33325 24.6168 3.38325 25.6668 4.66659 25.6668H23.3333C24.6166 25.6668 25.6666 24.6168 25.6666 23.3335V4.66683C25.6666 3.3835 24.6166 2.3335 23.3333 2.3335ZM15.0616 18.0135L13.9183 18.1302C13.6966 18.1535 13.5099 17.9902 13.4866 17.7802C13.2999 15.9602 13.1016 14.1402 12.9033 12.3085L11.7833 17.6868H9.56658L8.39992 12.3085C8.18992 14.4552 7.97992 16.6018 7.75825 18.7485C7.73492 18.9585 7.53659 19.1218 7.32659 19.0985L6.18325 18.9818C5.96159 18.9585 5.80992 18.7602 5.83325 18.5502C6.15992 15.3418 6.46325 12.1218 6.76658 8.9135H9.49658L10.6399 14.4435L11.7949 8.9135H14.5249C14.8166 11.7952 15.0849 14.6885 15.3883 17.5818C15.4349 17.7918 15.2716 17.9902 15.0616 18.0135ZM22.1666 15.4235C22.1666 17.5235 20.9299 17.9318 19.7283 17.9318C17.8966 17.9318 17.2316 17.8852 16.1933 17.5468V16.0068C16.6716 16.0535 18.1533 16.1352 19.2733 16.1352C19.7866 16.1352 20.1949 16.0302 20.1949 15.4935V15.1668C20.1949 14.7352 20.0666 14.4785 19.4716 14.4785H18.2349C16.0416 14.4785 15.9133 12.7285 15.9133 12.0635V11.3052C15.9133 9.56683 16.9399 9.0185 18.2933 8.99516C19.7866 8.96016 21.0583 9.11183 21.8399 9.3685V10.9085C21.0699 10.8268 19.5299 10.7918 18.9349 10.7918C18.2349 10.7802 17.8966 10.8268 17.8966 11.5035V11.7835C17.8966 12.3318 18.0716 12.5068 18.7366 12.5068H20.0083C21.7699 12.5068 22.1549 13.9652 22.1549 14.9335V15.4235H22.1666Z" fill="#299E63"/>
</g>
</svg>
